<svg id="圖層_1" data-name="圖層 1" xmlns="http://www.w3.org/2000/svg" viewBox="0 0 20 20"><title>burger</title><rect x="0.25" y="0.75" width="19.5" height="2.76" rx="0.1" fill="#fff"/><path d="M19.5,1V3.26H.5V1h19m.15-.5H.35A.35.35,0,0,0,0,.85V3.41a.35.35,0,0,0,.35.35h19.3A.35.35,0,0,0,20,3.41V.85A.35.35,0,0,0,19.65.5Z"/><rect x="0.25" y="8.12" width="19.5" height="2.76" rx="0.1" fill="#fff"/><path d="M19.5,8.37v2.26H.5V8.37h19m.15-.5H.35A.35.35,0,0,0,0,8.22v2.56a.35.35,0,0,0,.35.35h19.3a.35.35,0,0,0,.35-.35V8.22a.35.35,0,0,0-.35-.35Z"/><rect x="0.25" y="15.49" width="19.5" height="2.76" rx="0.1" fill="#fff"/><path d="M19.5,15.74V18H.5V15.74h19m.15-.5H.35a.35.35,0,0,0-.35.35v2.56a.35.35,0,0,0,.35.35h19.3a.35.35,0,0,0,.35-.35V15.59a.35.35,0,0,0-.35-.35Z"/></svg>